<svg xmlns="http://www.w3.org/2000/svg" viewBox="0 0 512 512" role="img" aria-label="Travel Plans">
  <rect width="512" height="512" rx="112" fill="#102030"/>
  <path d="M118 320c62-36 103-79 123-129l18-46c7-18 24-29 43-27 24 2 39 27 29 49l-21 48 82 54c16 10 21 31 11 47-10 15-30 20-46 11l-76-45-40 82 39 55c11 16 7 38-9 49-16 10-37 6-48-9l-50-73c-7-10-8-23-3-34l31-65c-18 18-40 35-65 50-17 10-38 4-48-13-9-16-4-37 12-47z" fill="#91d5ff"/>
  <path d="M124 386h264c16 0 30 13 30 30s-14 30-30 30H124c-16 0-30-13-30-30s14-30 30-30z" fill="#f7c948"/>
  <circle cx="326" cy="96" r="34" fill="#ffffff"/>
</svg>
